<svg width="64" height="64" viewBox="0 0 54 33" fill="none" xmlns="http://www.w3.org/2000/svg">
  <path fill-rule="evenodd" clip-rule="evenodd" d="M27 0C29.3815 0 31.5 2.11858 31.5 4.5V6.75C34.8595 7.28988 37.7462 9.24668 39.5359 12.0019H54V16.5019H40.7931C40.9287 17.1509 41 17.8174 41 18.5019C41 19.1864 40.9287 19.8529 40.7931 20.5019H54V25.0019H39.5359C37.7462 27.7571 34.8595 29.7139 31.5 30.2538V32.5038H27V30.2538C23.6405 29.7139 20.7538 27.7571 18.9641 25.0019H4.5V20.5019H17.7069C17.5713 19.8529 17.5 19.1864 17.5 18.5019C17.5 17.8174 17.5713 17.1509 17.7069 16.5019H4.5V12.0019H18.9641C20.7538 9.24668 23.6405 7.28988 27 6.75V4.5C27 2.11858 29.1186 0 31.5 0H27ZM29.25 11.2519C26.3505 11.2519 24 13.6024 24 16.5019C24 19.4014 26.3505 21.7519 29.25 21.7519C32.1495 21.7519 34.5 19.4014 34.5 16.5019C34.5 13.6024 32.1495 11.2519 29.25 11.2519Z" fill="#06B6D4"/>
</svg>